<?xml version="1.0" encoding="iso-8859-1"?>
<!-- Generator: Adobe Illustrator 19.0.0, SVG Export Plug-In . SVG Version: 6.00 Build 0)  -->
<svg version="1.1" id="Capa_1" xmlns="http://www.w3.org/2000/svg" xmlns:xlink="http://www.w3.org/1999/xlink" x="0px" y="0px"
	 viewBox="0 0 512.024 512.024" style="enable-background:new 0 0 512.024 512.024;" xml:space="preserve">
<g>
	<g>
		<path d="M487.328,275.76c-3.72-18.232-19.88-32-39.192-32h-20.688l-75.312-75.312V131.76h-312v39.336l-14.992,90.24
			c-0.624,2.12-1.008,4.272-1.008,6.424v8v16v48h48.808c2.032,9.968,7.856,18.488,15.808,24.272L0,364.264l0.048,16l192-0.504
			l-0.048-16l-56.304,0.144c7.856-5.776,13.616-14.256,15.632-24.144h201.616c2,9.808,7.672,18.224,15.424,24H256.024v16h208v-16
			h-48.12c7.752-5.776,13.416-14.192,15.424-24h56.808v-48v-8L487.328,275.76z M443.448,259.76h4.688
			c10.432,0,19.328,6.688,22.632,16h-19.32l-16-16H443.448z M404.824,243.76h-8h-5.144h-19.664h-59.88v-64h28.688L404.824,243.76z
			 M360.592,259.76l-28.568,40h-19.888v-40H360.592z M56.136,147.76h280v16h-24h-16h-72h-16h-72h-16h-64V147.76z M224.136,243.76
			v-64h72v64H224.136z M296.136,259.76v40h-72v-40H296.136z M208.136,179.76v64h-72v-64H208.136z M54.92,179.76h65.216v64h-48h-16
			h-8c-1.312,0-2.608,0.112-3.872,0.32c-0.008,0-0.024,0-0.032,0L54.92,179.76z M40.136,268.472l0.616-3.496
			c1.128-3.072,4.112-5.216,7.384-5.216h8v16h-16V268.472z M112.136,355.76c-13.232,0-24-10.768-24-24s10.768-24,24-24
			s24,10.768,24,24S125.368,355.76,112.136,355.76z M392.136,355.76c-13.232,0-24-10.768-24-24s10.768-24,24-24s24,10.768,24,24
			S405.368,355.76,392.136,355.76z M472.136,323.76h-40.808c0-0.008-0.008-0.016-0.008-0.024c-0.032-0.144-0.096-0.28-0.128-0.424
			c-0.496-2.304-1.2-4.52-2.072-6.656c-0.312-0.768-0.736-1.472-1.096-2.216c-0.704-1.456-1.432-2.888-2.304-4.248
			c-0.512-0.792-1.096-1.528-1.664-2.28c-0.896-1.192-1.816-2.344-2.832-3.432c-0.672-0.712-1.368-1.376-2.088-2.04
			c-1.072-0.992-2.192-1.912-3.376-2.784c-0.784-0.584-1.568-1.144-2.4-1.664c-1.272-0.8-2.6-1.496-3.96-2.152
			c-0.848-0.408-1.672-0.84-2.552-1.192c-1.536-0.616-3.144-1.064-4.768-1.48c-0.792-0.208-1.544-0.48-2.36-0.64
			c-2.464-0.48-5-0.768-7.6-0.768c-2.6,0-5.136,0.288-7.6,0.768c-0.808,0.16-1.568,0.432-2.36,0.64
			c-1.624,0.424-3.232,0.872-4.768,1.48c-0.88,0.352-1.704,0.784-2.552,1.192c-1.36,0.656-2.688,1.352-3.96,2.152
			c-0.832,0.52-1.616,1.088-2.4,1.664c-1.176,0.872-2.296,1.792-3.376,2.784c-0.72,0.664-1.416,1.328-2.088,2.04
			c-1.016,1.08-1.936,2.24-2.832,3.432c-0.568,0.752-1.152,1.488-1.664,2.28c-0.872,1.352-1.6,2.784-2.304,4.248
			c-0.36,0.744-0.784,1.448-1.096,2.216c-0.872,2.136-1.576,4.36-2.072,6.656c-0.032,0.144-0.096,0.28-0.128,0.424
			c0,0.008-0.008,0.016-0.008,0.024H151.328c0-0.008-0.008-0.016-0.008-0.024c-0.032-0.144-0.096-0.28-0.128-0.424
			c-0.496-2.304-1.2-4.52-2.072-6.656c-0.312-0.768-0.736-1.472-1.096-2.216c-0.704-1.456-1.432-2.888-2.304-4.248
			c-0.512-0.792-1.096-1.528-1.664-2.28c-0.896-1.192-1.816-2.344-2.832-3.432c-0.672-0.712-1.368-1.376-2.088-2.04
			c-1.072-0.992-2.192-1.912-3.376-2.784c-0.784-0.584-1.568-1.144-2.4-1.664c-1.272-0.8-2.6-1.496-3.96-2.152
			c-0.848-0.408-1.672-0.84-2.552-1.192c-1.536-0.616-3.144-1.064-4.768-1.48c-0.792-0.208-1.544-0.48-2.36-0.64
			c-2.464-0.48-5-0.768-7.6-0.768s-5.136,0.288-7.6,0.768c-0.808,0.16-1.568,0.432-2.36,0.64c-1.624,0.424-3.232,0.872-4.768,1.48
			c-0.88,0.352-1.704,0.784-2.552,1.192c-1.36,0.656-2.688,1.352-3.96,2.152c-0.832,0.52-1.616,1.088-2.4,1.664
			c-1.176,0.872-2.296,1.792-3.376,2.784c-0.72,0.664-1.416,1.328-2.088,2.04c-1.016,1.08-1.936,2.24-2.832,3.432
			c-0.568,0.752-1.152,1.488-1.664,2.28c-0.872,1.352-1.6,2.784-2.304,4.248c-0.36,0.744-0.784,1.448-1.096,2.216
			c-0.872,2.136-1.576,4.36-2.072,6.656c-0.032,0.144-0.096,0.28-0.128,0.424c0,0.008-0.008,0.016-0.008,0.024H40.136v-32h32v-32h48
			h16h72v8h-56v16h56v32h88h16h28.12l40-56h32.568l32,32h27.312V323.76z"/>
	</g>
</g>
<g>
	<g>
		<rect x="208.024" y="363.76" width="32" height="16"/>
	</g>
</g>
<g>
	<g>
		<rect x="480.024" y="363.76" width="32" height="16"/>
	</g>
</g>
<g>
	<g>
		<rect x="104.104" y="323.76" width="16" height="16"/>
	</g>
</g>
<g>
	<g>
		<rect x="384.104" y="323.76" width="16" height="16"/>
	</g>
</g>
<g>
</g>
<g>
</g>
<g>
</g>
<g>
</g>
<g>
</g>
<g>
</g>
<g>
</g>
<g>
</g>
<g>
</g>
<g>
</g>
<g>
</g>
<g>
</g>
<g>
</g>
<g>
</g>
<g>
</g>
</svg>
