<?xml version="1.0" encoding="iso-8859-1"?>
<!-- Generator: Adobe Illustrator 19.0.0, SVG Export Plug-In . SVG Version: 6.00 Build 0)  -->
<svg version="1.1" id="Capa_1" xmlns="http://www.w3.org/2000/svg" xmlns:xlink="http://www.w3.org/1999/xlink" x="0px" y="0px"
	 viewBox="0 0 512.001 512.001" style="enable-background:new 0 0 512.001 512.001;" xml:space="preserve">
<g>
	<g>
		<path d="M135.853,264.914c-36.8,0-66.739,29.94-66.739,66.74s29.94,66.74,66.739,66.74c36.801,0,66.74-29.94,66.74-66.74
			S172.654,264.914,135.853,264.914z M135.853,383.394c-28.529,0-51.738-23.21-51.738-51.739s23.209-51.739,51.738-51.739
			c28.529,0,51.739,23.209,51.739,51.739S164.382,383.394,135.853,383.394z"/>
	</g>
</g>
<g>
	<g>
		<path d="M135.853,302.997c-15.802,0-28.657,12.856-28.657,28.658s12.855,28.658,28.657,28.658s28.658-12.856,28.658-28.658
			S151.655,302.997,135.853,302.997z M135.853,345.31c-7.529,0-13.656-6.126-13.656-13.657s6.126-13.657,13.656-13.657
			c7.53,0,13.657,6.126,13.657,13.657S143.384,345.31,135.853,345.31z"/>
	</g>
</g>
<g>
	<g>
		<path d="M412.034,302.996c-15.802,0-28.657,12.857-28.657,28.658c0,15.802,12.855,28.658,28.657,28.658
			s28.658-12.856,28.658-28.658C440.692,315.852,427.836,302.996,412.034,302.996z M412.035,345.31
			c-7.529,0-13.656-6.126-13.656-13.657s6.126-13.657,13.656-13.657c7.531,0.001,13.657,6.127,13.657,13.657
			C425.692,339.184,419.565,345.31,412.035,345.31z"/>
	</g>
</g>
<g>
	<g>
		<path d="M494.45,210.106l-17.662-14.178c-1.856-1.488-4.189-2.308-6.567-2.308H376.93l-57.373-75.849
			c-1.972-2.606-5.103-4.164-8.373-4.164h-0.001c-5.988,0-142.149,0-150.324,0c-1.985,0-4.026,0.83-5.483,2.383l-82.021,87.888
			H55.007v-30.036c0-10.753-8.749-19.501-19.501-19.501H19.501C8.749,154.342,0,163.09,0,173.843v92.213
			c0,10.753,8.749,19.501,19.501,19.501h16.005c1.551,0,3.053-0.201,4.5-0.545v20.818c0,5.79,4.71,10.501,10.501,10.501h7.912
			c3.739,0,7.224-2.011,9.095-5.25l34.819-60.309h67.04l34.82,60.31c1.869,3.238,5.354,5.249,9.094,5.249h40.085
			c4.143,0,7.5-3.358,7.5-7.5c0-4.142-3.357-7.5-7.5-7.5h-37.487l-34.82-60.31c-1.87-3.238-5.354-5.25-9.094-5.25H99.735
			c-3.738,0-7.223,2.011-9.095,5.25l-34.819,60.31h-0.814c0-15.343,0-67.101,0-82.45c34.389,0,128.291,0,159.898,0
			c0,16.738,0,29.446,0,45.404c0,5.79,4.711,10.501,10.502,10.501h90.936c5.79,0,10.501-4.71,10.501-10.501
			c0-23.998,0-29.083,0-52.407c0-1.11-0.179-2.204-0.522-3.255c1.205,0,139.29,0,142.316,0l16.422,13.183
			c3.905,3.135,6.945,7.063,8.985,11.462h-10.543c-4.143,0-7.5,3.358-7.5,7.5c0,4.142,3.357,7.5,7.5,7.5h13.498v46.101l-6.613,4.047
			l-33.139-57.396c-1.87-3.238-5.354-5.25-9.094-5.25h-72.235c-3.738,0-7.223,2.011-9.095,5.25l-34.819,60.309h-43.629
			c-4.143,0-7.5,3.358-7.5,7.5c0,4.142,3.357,7.5,7.5,7.5h46.227c3.739,0,7.223-2.011,9.095-5.25l34.819-60.309h67.04l34.146,59.141
			c2.943,5.103,9.545,6.789,14.576,3.709l12.702-7.772c3.097-1.895,5.021-5.327,5.021-8.959v-50.19
			C512,232.398,505.603,219.06,494.45,210.106z M40.006,266.056c0,2.439-2.061,4.5-4.5,4.5H19.501c-2.439,0-4.5-2.061-4.5-4.5
			v-92.213c0-2.439,2.061-4.5,4.5-4.5h16.005c2.439,0,4.5,2.061,4.5,4.5C40.006,183.082,40.006,256.915,40.006,266.056z
			 M153.357,203.879H93.874l59.484-63.739V203.879z M214.905,203.879h-18.337v-33.274c0-5.056,4.112-9.169,9.168-9.169
			c5.056,0,9.17,4.113,9.17,9.169V203.879z M311.842,259.784h-81.937v-16.285h81.937V259.784z M311.842,228.498h-81.937v-57.894
			c0-13.328-10.843-24.169-24.17-24.169c-13.327,0-24.168,10.843-24.168,24.169v33.274h-13.209v-75.269h114.845l28.64,84.012
			V228.498z M321.213,193.62l-22.163-65.011h9.895l49.175,65.011H321.213z"/>
	</g>
</g>
<g>
	<g>
		<path d="M470.858,341.988c-3.959-1.221-8.158,0.996-9.38,4.953c-6.732,21.802-26.604,36.451-49.443,36.451
			c-28.529,0-51.738-23.21-51.738-51.739c0-28.529,23.209-51.739,51.738-51.739c22.84,0,42.711,14.649,49.443,36.451
			c1.222,3.958,5.419,6.176,9.38,4.953c3.958-1.222,6.176-5.421,4.953-9.38c-8.687-28.128-34.316-47.026-63.776-47.026
			c-36.8,0-66.739,29.94-66.739,66.74s29.94,66.74,66.739,66.74c29.46,0,55.09-18.898,63.776-47.026
			C477.034,347.41,474.816,343.21,470.858,341.988z"/>
	</g>
</g>
<g>
</g>
<g>
</g>
<g>
</g>
<g>
</g>
<g>
</g>
<g>
</g>
<g>
</g>
<g>
</g>
<g>
</g>
<g>
</g>
<g>
</g>
<g>
</g>
<g>
</g>
<g>
</g>
<g>
</g>
</svg>
