<svg height="480pt" viewBox="0 -88 480.00229 480" width="480pt" xmlns="http://www.w3.org/2000/svg"><path d="m479.378906 196.890625-27.5625-68.890625h12.1875c4.417969 0 8-3.582031 8-8s-3.582031-8-8-8h-30.242187c3.996093-4.371094 6.21875-10.074219 6.242187-16 13.253906 0 24-10.742188 24-24 0-13.253906-10.746094-24-24-24h-12l-21.601562-28.800781c-1.511719-2.011719-3.882813-3.199219-6.398438-3.199219h-81c-3.101562 0-5.921875 1.792969-7.242187 4.601562l-12.847657 27.398438h-18.910156c-13.257812 0-24 10.746094-24 24 .023438 2.734375.523438 5.4375 1.46875 8h-17.46875v-72c0-4.417969-3.582031-8-8-8-4.417968 0-8 3.582031-8 8v72h-16v-24c0-4.417969-3.582031-8-8-8h-3.058594l-13.742187-27.574219c-1.363281-2.726562-4.152344-4.441406-7.199219-4.425781h-64c-2.125 0-4.15625.84375-5.65625 2.34375l-29.65625 29.65625h-12.6875c-13.257812 0-24 10.746094-24 24v16c0 4.417969 3.582032 8 8 8h24c.027344 3.945312 1.039063 7.820312 2.941406 11.273438l-1.183593 4.726562h-65.757813c-4.417968 0-7.99999975 3.582031-7.99999975 8s3.58203175 8 7.99999975 8h64v122.800781l-67.25 29.886719c-3.453125 1.535156-5.363281 5.277344-4.578125 8.972656.78125 3.699219 4.046875 6.34375 7.828125 6.339844 1.113282.003906 2.21875-.230469 3.238282-.6875l69.800781-31.023438c-.664063 2.519532-1.015625 5.109376-1.039063 7.710938 0 17.675781 14.324219 32 32 32 17.671875 0 32-14.324219 32-32-.035156-2.703125-.417968-5.390625-1.136718-8h17.136718v24c0 4.417969 3.582032 8 8 8h160c4.417969 0 8-3.582031 8-8v-24h17.132813c-.71875 2.609375-1.101563 5.296875-1.132813 8 0 17.675781 14.324219 32 32 32 17.671875 0 32-14.324219 32-32-.035156-2.703125-.417968-5.390625-1.136718-8h4.855468l13.601563 20.441406c1.488281 2.230469 3.996093 3.566406 6.679687 3.558594h32c4.417969 0 8-3.582031 8-8v-80c0-1.015625-.195312-2.023438-.570312-2.96875zm-19.191406-4.890625h-68.183594v-32h55.382813zm-92.183594-160h28l12 16h-40zm-43.914062 0h27.914062v16h-35.417968zm-84.085938 64h40c.019532 5.925781 2.242188 11.628906 6.238282 16h-46.238282zm-40 0h24v16h-30.242187c3.996093-4.371094 6.21875-10.074219 6.242187-16zm-56-64h27.054688l8 16h-35.054688zm-28.691406 0h12.691406v16h-28.691406zm-37.070312 48h-22.238282v-8c0-4.417969 3.582032-8 8-8h128v14.242188c-4.683594-4.300782-10.902344-6.539063-17.25-6.207032-6.351562.332032-12.300781 3.203125-16.511718 7.964844h-44.480469c-4.5-5.085938-10.964844-8-17.757813-8-6.792968 0-13.261718 2.914062-17.761718 8zm105.761718 16c0 4.417969-3.582031 8-8 8-4.417968 0-8-3.582031-8-8zm-25.761718 16h-44.480469c3.996093-4.371094 6.21875-10.074219 6.242187-16h32c.019532 5.925781 2.242188 11.628906 6.238282 16zm-54.238282-16c0 4.417969-3.582031 8-8 8-1.230468-.019531-2.4375-.328125-3.523437-.902344l1.769531-7.097656zm8 192c-8.839844 0-16-7.164062-16-16s7.160156-16 16-16c8.835938 0 16 7.164062 16 16s-7.164062 16-16 16zm192-88c4.417969 0 8 3.582031 8 8s-3.582031 8-8 8h-14.242187c-4.5-5.085938-10.964844-8-17.757813-8-6.792968 0-13.261718 2.914062-17.761718 8h-44.480469c-4.5-5.085938-10.964844-8-17.757813-8-6.792968 0-13.261718 2.914062-17.761718 8h-6.238282c-4.417968 0-8-3.582031-8-8s3.582032-8 8-8zm-115.058594-16 8-16h27.058594v16zm51.058594 0v-16h12.6875l16 16zm14.238282 64h-44.480469c3.996093-4.371094 6.21875-10.074219 6.242187-16h32c.019532 5.925781 2.242188 11.628906 6.238282 16zm-62.238282 32h-16v-16h16zm0-40c-4.417968 0-8-3.582031-8-8s3.582032-8 8-8c4.417969 0 8 3.582031 8 8s-3.582031 8-8 8zm32 40h-16v-16h16zm48 0h-32v-16h32zm0-40c-4.417968 0-8-3.582031-8-8s3.582032-8 8-8c4.417969 0 8 3.582031 8 8s-3.582031 8-8 8zm48 40h-32v-16h32zm24-32h-54.242187c3.996093-4.371094 6.21875-10.074219 6.242187-16h8c13.253906 0 24-10.742188 24-24 0-13.253906-10.746094-24-24-24h-12.691406l-29.652344-29.65625c-1.5-1.5-3.535156-2.34375-5.65625-2.34375h-64c-3.035156 0-5.804687 1.710938-7.160156 4.425781l-13.785156 27.574219h-3.054688c-13.257812 0-24 10.746094-24 24 0 13.257812 10.742188 24 24 24 .019532 5.925781 2.242188 11.628906 6.238282 16h-41.296876c-11.925781-10.664062-29.960937-10.664062-41.886718 0h-3.054688v-120h256zm-48-152h16c0 4.417969-3.582031 8-8 8-4.417968 0-8-3.582031-8-8zm25.757813 16c3.996093-4.371094 6.21875-10.074219 6.242187-16h9.75l4 16zm0-32c-4.5-5.085938-10.964844-8-17.757813-8-6.792968 0-13.261718 2.914062-17.761718 8h-6.238282c-4.417968 0-8-3.582031-8-8s3.582032-8 8-8h160c4.417969 0 8 3.582031 8 8s-3.582031 8-8 8h-6.242187c-4.5-5.085938-10.964844-8-17.757813-8-6.792968 0-13.261718 2.914062-17.761718 8zm102.242187 16c0 4.417969-3.582031 8-8 8-4.417968 0-8-3.582031-8-8s3.582032-8 8-8c4.417969 0 8 3.582031 8 8zm-69.761718 0h37.761718c.019532 5.925781 2.242188 11.628906 6.238282 16h-40zm29.761718 192c-8.839844 0-16-7.164062-16-16s7.160156-16 16-16c8.835938 0 16 7.164062 16 16s-7.164062 16-16 16zm80-16h-19.722656l-13.597656-20.4375c-1.488282-2.234375-4-3.570312-6.679688-3.5625h-19.058594c-11.925781-10.664062-29.960937-10.664062-41.886718 0h-3.054688v-120h74.582032l6.398437 16h-56.980469c-4.417968 0-8 3.582031-8 8v48c0 4.417969 3.582032 8 8 8h80zm0 0"/></svg>